<?xml version="1.0" encoding="utf-8"?>
<!-- Generator: Adobe Illustrator 25.2.1, SVG Export Plug-In . SVG Version: 6.00 Build 0)  -->
<svg version="1.1" id="레이어_1" xmlns="http://www.w3.org/2000/svg" xmlns:xlink="http://www.w3.org/1999/xlink" x="0px"
	 y="0px" viewBox="0 0 841.89 595.28" style="enable-background:new 0 0 841.89 595.28;" xml:space="preserve">
<style type="text/css">
	.st0{fill:#ED1C24;}
	.st1{fill:#F58220;}
	.st2{fill:#77787B;}
</style>
<g>
	<g>
		<path class="st0" d="M226.5,220.98c0,0,12.14,2.86,12.14,15.71c0,12.85-11.78,14.63-11.78,14.63h-31.06
			c0,0-36.06-0.71-48.91,24.28c0,0-6.43-47.12,40.7-54.62H226.5z"/>
		<path class="st1" d="M179.37,258.47c0,0-34.01,4.07-32.23,42.63c0,0,2.59,12.35,15.09,12.35c12.49,0,15.14-12.14,15.14-12.14
			v-34.27C177.38,267.03,177.27,260.5,179.37,258.47z"/>
		<path class="st0" d="M189.52,342.36c0,0-12.14-2.86-12.14-15.71c0-12.85,11.78-14.63,11.78-14.63h31.06c0,0,36.05,0.71,48.9-24.28
			c0,0,6.43,47.12-40.7,54.62H189.52z"/>
		<path class="st1" d="M236.64,304.88c0,0,34.01-4.08,32.22-42.64c0,0-2.59-12.34-15.09-12.34c-12.49,0-15.14,12.14-15.14,12.14
			v34.27C238.64,296.31,238.75,302.85,236.64,304.88z"/>
	</g>
	<path class="st2" d="M328,274.32c0,16.33-20.88,13.67-20.88,13.67v15.95h-7.79v-42.15C309.4,260.84,328,257.99,328,274.32z
		 M306.93,267.3v13.86c0,0,13.48,3.23,13.48-6.83C320.41,264.26,306.93,267.3,306.93,267.3z"/>
	<path class="st2" d="M355.91,268.44l2.09-5.32c0,0-22.02-8.92-25.25,8.92c0,0-2.66,7.41,10.25,13.29c0,0,9.87,2.66,8.73,8.35
		c-1.14,5.7-14.84,5.51-17.85,1.33l-2.28,7.02c0,0,21.83,9.3,27.91-7.02c0,0,2.85-10.06-6.84-14.24c0,0-12.91-3.23-11.77-8.54
		C340.91,272.23,341.48,264.07,355.91,268.44z"/>
	<path class="st2" d="M398.44,296.34l6.83,7.6h-8.73l-3.61-3.23c-5.32,6.45-16.52,3.99-16.52,3.99
		c-20.12-11.02-1.71-24.87-1.71-24.87c-5.51-8.92-0.95-14.81-0.95-14.81c4.75-8.16,21.07-5.31,21.07,3.99c0,9.3-9.3,12.15-9.3,12.15
		l8.17,9.3c3.42-0.95,4.18-10.06,4.18-10.06h7.02C404.89,288.75,398.44,296.34,398.44,296.34z M388.95,295.97l-10.06-11.77
		c0,0-7.41,3.61-3.04,12.15C375.85,296.34,382.68,302.42,388.95,295.97z M387.43,271.1c0.19-5.32-3.99-5.51-3.99-5.51
		c-4.75,0.38-4.75,5.12-4.75,5.12c-0.38,4.37,3.23,6.46,3.23,6.46C387.24,276.03,387.43,271.1,387.43,271.1z"/>
	<polygon class="st2" points="412.11,303.94 415.14,261.6 425.4,261.6 434.7,292.36 444.38,261.6 454.44,261.6 457.1,303.75 
		449.51,303.75 448.18,270.15 437.36,303.18 430.52,303.18 421.41,270.53 419.32,303.75 	"/>
	<path class="st2" d="M466.21,280.59l-1.71-5.12c0,0,6.27-3.42,12.53-3.04c0,0,10.63-0.19,11.2,10.63l0.19,20.89h-6.83v-3.8
		c0,0-3.23,4.36-10.82,4.36c0,0-8.54-1.33-8.54-8.92c0,0-1.14-12.72,18.03-11.96c0,0,1.33-5.69-5.12-6.08
		C475.14,277.55,467.54,277.36,466.21,280.59z M480.64,288.79c0-0.19-4.08,0.29-4.36,0.35c-2.41,0.48-4.67,1.48-5.86,3.76
		c-1.31,2.51,1.14,5.34,3.63,5.7c1.41,0.2,2.81-0.21,3.95-1.05c0.56-0.41,1.06-0.93,1.54-1.43c0.35-0.37,1.1-1.12,1.1-1.68
		C480.64,294.44,480.64,288.79,480.64,288.79z"/>
	<path class="st2" d="M503.52,303.81h-8.03v-30.52h6.25v5.17c0,0,5-7.32,11.07-5.53v6.78c0,0-9.28-1.43-9.28,6.78V303.81z"/>
	<polygon class="st2" points="524.58,259.36 516.55,259.36 516.55,303.81 524.58,303.81 524.58,293.99 527.08,290.95 535.82,303.63 
		545.47,303.63 532.79,285.78 543.86,273.28 534.76,273.28 524.58,286.13 	"/>
	<path class="st2" d="M570.63,296.84l0.89,5.71c-25.88,8.39-26.24-12.5-26.24-12.5s-1.25-17.67,14.81-17.67
		c16.06,0,13.39,18.21,13.39,18.21H552.6C554.21,303.8,570.63,296.84,570.63,296.84z M552.78,285.78h13.74c0,0-0.18-8.39-6.61-8.39
		C553.49,277.39,552.78,285.78,552.78,285.78z"/>
	<path class="st2" d="M575.45,273.1h4.29v-5.89l8.21-2.14v7.5h6.96v6.61h-7.14v15.53c0,0,0.18,3.39,4.11,3.39h2.86v6.07h-6.25
		c0,0-8.57,0.53-8.57-8.21v-17.14h-4.46V273.1z"/>
	<rect x="599.19" y="273.1" class="st2" width="8.39" height="31.06"/>
	<path class="st2" d="M622.93,303.8h-8.03v-30.34h6.24v4.29c0,0,3.93-5.53,9.64-5.53c5.71,0,11.42,5.53,11.42,9.1v22.49h-7.32
		v-18.92c0,0-0.18-6.43-5.53-6.43s-6.43,5.53-6.43,5.53V303.8z"/>
	<path class="st2" d="M671.12,276.67v-3.39h6.43v30.88c0,0-1.61,19.99-27.13,10.53l1.25-5.53c0,0,20.53,7.32,18.39-9.82
		c0,0-7.32,9.46-16.78,1.61c-1.35-1.12-2.5-2.45-3.41-3.96c-1.44-2.38-2.23-5.11-2.3-7.89c-0.1-3.73,0.88-8.33,3.5-11.09
		c0.5-0.53,1.03-1.04,1.59-1.52c2.23-1.94,4.9-3.54,7.86-3.99C664.6,271.87,668.31,273.82,671.12,276.67z M669.76,282.96
		c0,0-2.03-4.51-6.49-4.51c0,0-6.96-0.36-7.85,8.57c0,0-1.25,9.28,7.67,10.53c0,0,4.82,0.89,6.6-4.64L669.76,282.96z"/>
	<path class="st2" d="M599.55,264.62c0-2.22,1.8-4.02,4.02-4.02c2.22,0,4.02,1.8,4.02,4.02c0,2.22-1.8,4.02-4.02,4.02
		C601.35,268.64,599.55,266.84,599.55,264.62z"/>
</g>
</svg>
